# xmcd
#
# Track frame offsets: 
#        225
#        20106
#        44279
#        61868
#        81840
#        98907
#        116262
#        130042
#        144967
#        161496
#        181345
#        205522
#        223198
#        243239
#        260309
#        277657
#        291407
#        306316
#
# Disc length: 4302 seconds
#
# Revision: 2
# Processed by: cddbd v1.5.2PL0 Copyright (c) Steve Scherf et al.
# Submitted via: ExactAudioCopy v1.1
#
DISCID=fa10cb12
DTITLE=Andrej Šifrer - Življenje je drag šport
DYEAR=1995
DGENRE=Slo-Pop
TTITLE0=Moja čebela
TTITLE1=Življenje je drag šport
TTITLE2=Stvari gredo na bolje
TTITLE3=Srce, moj mali klovn
TTITLE4=Ko bom umrl
TTITLE5=Nihče ne trdi (da vam to bo všeč)
TTITLE6=(Nikol nisem šel) Z grdo žensko spat
TTITLE7=Obleka naredi človeka
TTITLE8=Kako mi zadišiš
TTITLE9=Moja čebela (instrumentalna podlaga)
TTITLE10=Življenje je drag šport (instrumentalna podlaga)
TTITLE11=Stvari gredo na bolje (instrumentalna podlaga)
TTITLE12=Srce, moj mali klovn (instrumentalna podlaga)
TTITLE13=Ko bom umrl (instrumentalna podlaga)
TTITLE14=Nihče ne trdi (da vam to bo všeč) (instrumentalna podlaga)
TTITLE15=(Nikol nisem šel) Z grdo žensko spat (instrumentalna podlaga)
TTITLE16=Obleka naredi človeka (instrumentalna podlaga)
TTITLE17=Kako mi zadišiš (instrumentalna podlaga)
EXTD=
EXTT0=
EXTT1=
EXTT2=
EXTT3=
EXTT4=
EXTT5=
EXTT6=
EXTT7=
EXTT8=
EXTT9=
EXTT10=
EXTT11=
EXTT12=
EXTT13=
EXTT14=
EXTT15=
EXTT16=
EXTT17=
PLAYORDER=
